<svg viewBox="0 0 540 310" xmlns="http://www.w3.org/2000/svg" fill-rule="evenodd" clip-rule="evenodd" stroke-linejoin="round" stroke-miterlimit="2"><path d="M508.012 225.21c-3.83-.866-7.614-1.823-11.443-2.827l-2.19-.638h-.136l-133.642 1.368 115.95-9.165 7.251-3.602 20.015-7.615 4.79-33.102-22.39 1.642h-.09l-2.234.137-2.828-1.232-3.1-.365c-2.736.183-5.654-.364-8.389-.09-5.517.546-10.988 1.276-16.46 2.142-10.943 1.733-21.614 4.378-32.19 7.751-11.08 3.466-22.617 4.286-33.879 3.694-11.307-.82-22.433-2.827-33.102-6.155 10.897 2.507 22.068 3.602 33.148 3.556 5.563-.046 11.08-.501 16.505-1.277 5.427-.957 10.761-2.188 15.821-4.15 10.49-4.149 21.523-7.203 32.603-9.483a260.56 260.56 0 0116.733-2.872c2.826-.411 5.608-.776 8.435-1.049l4.013-1.095 2.188-.957 2.006-.365 19.651-3.738 1.232-30.14-18.467 1.46 18.695-7.889v-.045l.592-15.183c-21.567.273-43.133.273-64.7-.684h-.82c-.273-.046-.502-.046-.775-.046a68.927 68.927 0 01-3.01-.182h-.365c-.136 0-.273-.047-.409 0-4.332-.273-8.71-.548-12.995-1.049-5.654-.684-11.08-1.823-16.598-2.553-11.034-1.504-22.16-2.509-33.33-3.329-11.125-.73-22.25-1.276-33.42-1.368-11.128.046-22.298.73-33.469 1.049l-66.98 2.37c-18.695 1.232-37.434 2.098-56.175 2.463-18.739.319-37.57.455-56.402-1.823-7.887-.959-15.82-1.733-23.8-2.372-.137-.045-.273-.045-.41-.045-.138-.046-.274-.046-.41-.046a107.406 107.406 0 00-3.785-.319c-.138-.046-.229-.046-.365-.046h-.365c-8.846-.73-17.736-1.321-26.628-1.915a2750.687 2750.687 0 00-51.204-2.645c.82 2.874 1.55 5.792 1.915 9.121.046 1.686 0 2.142.137 3.144.09.822.32 1.643.637 2.327.684 1.413 1.78 2.507 3.375 3.236.775.411 1.641.638 2.553.867.867.228 1.687.411 2.463.73l.137.046 82.573 13.358-.137 1.049-69.944-7.751a101.669 101.669 0 016.43 4.514h.045l5.654 4.332-7.022-.228-27.312-.775 1.05 38.391c2.827 3.193 5.197 6.52 7.477 9.985a82.754 82.754 0 015.29 9.394c14.635.182 29.226.547 43.862 1.185 7.661.365 15.366.776 23.025 1.414 3.877.365 7.707.73 11.628 1.231 1.915.273 3.876.546 5.882.957 1.002.228 2.005.455 3.054.776 1.05.365 2.19.684 3.694 1.777l.182.092.091.136c.182.183.32.365.411.548l44.273 7.113-.137 1.185-45.23-2.28c-.366.319-.775.548-1.094.73-1.414.73-2.599 1.003-3.74 1.231-2.325.456-4.468.592-6.61.729-4.242.182-8.48.046-12.585-.091-8.116-.228-16.278-.136-24.486.046-15.639.41-31.278 1.094-46.918 2.052l-.592 19.423 24.303 4.697h.046l2.005.411v.273c3.42-.183 6.84-.091 10.168.136 7.342.457 14.545 1.642 21.613 3.01a1672.465 1672.465 0 0041.765 7.797c2.325.41 4.605.775 6.84 1.047h.045c4.697-1.275 9.348-1.869 13.998-2.37 5.335-.548 10.67-.866 16.004-1.093a494.516 494.516 0 0131.873-.229c-10.579.502-21.204 1.322-31.737 2.507a303.512 303.512 0 00-15.684 2.19c-.957.182-1.96.365-2.918.547.866.137 1.732.319 2.645.456l20.973 3.738c13.998 2.372 27.95 5.108 42.177 5.381-7.114.776-14.27.411-21.384-.046-7.114-.456-14.18-1.094-21.294-1.778l-21.156-2.508c-3.465-.365-7.204-.867-10.304-1.003-3.74 0-7.342-.411-10.898-.774-14.273-1.46-28.27-3.831-42.359-6.02-6.93-1.094-13.77-1.96-20.608-2.142-3.422-.046-6.795 0-10.078.319-.638.09-1.277.136-1.869.228-.092.183-.182.409-.319.592-1.688 2.599-4.833 4.286-7.707 4.468-2.78.229-5.06.229-7.568.684-2.142.365-4.422.958-6.338 1.871l6.703 29.454c22.022.183 44.046.455 66.068 1.504 11.308.502 22.615 1.139 33.924 2.144 5.653.501 11.353 1.139 17.097 2.006 5.928 1.048 11.308 2.508 16.78 3.83 21.795 5.471 43.68 9.53 65.931 10.076 11.08.547 22.251.138 33.467-.183a335.204 335.204 0 0016.734-.82c5.015-.227 10.26-.728 14.864-1.55v-6.019l-.044-2.781 2.872.593c16.733 3.51 34.197 5.198 51.478 6.474 17.325 1.277 34.652 1.825 51.978 1.46 17.373-.275 34.744-1.186 52.116-2.28 15.867-1.049 31.78-2.281 47.557-3.739l-2.463-58.728zM244.24 120.75c-4.97-1.55-9.939-3.008-14.863-4.103-2.462-.638-4.97-.957-7.34-1.278-1.187 0-2.282-.182-3.603-.136l-3.92.182c-10.443.411-20.93.502-31.417 0 10.351-2.005 20.701-3.419 31.097-4.558 2.553-.275 5.152-.548 8.16-.502 2.782.227 5.517.592 8.117 1.186 5.29 1.002 10.305 2.689 15.321 4.285 2.6.867 5.196 1.779 7.795 2.736l35.156 3.556-24.577.593c3.694 1.46 7.34 3.009 10.988 4.605 9.576 4.286 18.968 8.892 28.18 13.952l-.09.138c-19.79-6.887-39.26-14.409-59.004-20.656zm104.188 86.632c-4.787-.137-9.62-.911-14.317-2.507a32.393 32.393 0 00-5.836 1.231c-1.825.548-3.604 1.276-5.198 2.279-1.597 1.049-3.1 2.28-4.059 3.966.822-1.731 2.234-3.19 3.784-4.376 1.55-1.185 3.283-2.097 5.108-2.827 1.14-.502 2.324-.867 3.556-1.185-.82-.365-1.597-.73-2.417-1.095-5.243-2.69-11.263-4.058-17.37-4.878-6.158-.822-12.495-1.141-18.879-1.049 6.155-1.778 12.585-2.645 19.106-2.691 3.281.046 6.52.319 9.803.867 3.283.639 6.52 1.596 9.666 2.964 5.29 2.462 11.353 3.419 17.418 4.195l18.831 1.915c-6.11 2.417-12.63 3.283-19.196 3.191z" fill="#9e6142" fill-rule="nonzero"/><path d="M441.58 101.736c-.229 0-.502-.044-.73-.044-1.003-.046-2.052-.137-3.055-.183h-.365c-.136-.046-.273-.046-.409-.046-4.288-.273-8.573-.593-12.813-1.139-5.473-.684-10.99-1.871-16.551-2.599-11.08-1.642-22.251-2.736-33.377-3.602-11.17-.866-22.343-1.506-33.557-1.642-11.263-.046-22.389.547-33.56.776l-67.116 1.869c-18.695.957-37.344 1.55-56.037 1.641-18.649 0-37.39-.137-55.72-2.644-8.16-1.095-16.276-2.007-24.438-2.827-.137 0-.273-.047-.411-.047-.137 0-.273-.046-.41-.046-1.231-.136-2.462-.226-3.74-.363-.136 0-.273 0-.409-.046-.136 0-.275 0-.411-.046l.046 5.198h.365c.136 0 .227 0 .365.046 1.276.091 2.507.183 3.784.319.137 0 .273 0 .41.046.138 0 .274 0 .411.045 7.979.639 15.913 1.413 23.8 2.372 18.832 2.278 37.663 2.142 56.402 1.823 18.741-.365 37.48-1.231 56.175-2.463l66.98-2.37c11.171-.319 22.341-1.003 33.468-1.049 11.17.092 22.296.638 33.421 1.368 11.17.82 22.296 1.824 33.33 3.329 5.517.73 10.944 1.869 16.598 2.553 4.285.501 8.663.776 12.995 1.048.136-.046.273 0 .409 0h.365c1.003.091 2.006.137 3.01.183.273 0 .502 0 .775.046h.82v-1.506h-.82zM367.624 204.191c-6.11 2.416-12.63 3.282-19.197 3.19-4.787-.136-9.62-.91-14.317-2.507-1.96.229-3.92.638-5.836 1.232-1.824.547-3.603 1.275-5.198 2.278-1.596 1.049-3.1 2.28-4.059 3.967.822-1.731 2.235-3.191 3.785-4.376 1.55-1.185 3.283-2.098 5.108-2.828 1.14-.501 2.324-.866 3.555-1.185-.82-.365-1.596-.73-2.416-1.095-5.243-2.689-11.263-4.057-17.372-4.877-6.156-.822-12.494-1.141-18.877-1.049 6.155-1.779 12.584-2.645 19.106-2.691 3.281.046 6.52.319 9.803.866 3.283.64 6.52 1.596 9.666 2.964 5.288 2.463 11.353 3.419 17.417 4.195l18.832 1.916zM303.333 141.268l-.09.138c-19.79-6.887-39.26-14.409-59.003-20.656-4.97-1.55-9.939-3.009-14.863-4.103-2.463-.638-4.97-.957-7.342-1.278-1.185 0-2.28-.182-3.602-.136l-3.92.182c-10.443.411-20.929.502-31.416 0 10.35-2.005 20.7-3.419 31.097-4.558 2.553-.275 5.152-.548 8.16-.502 2.782.227 5.517.592 8.116 1.186 5.29 1.002 10.306 2.689 15.322 4.285 2.6.867 5.196 1.779 7.795 2.736l35.156 3.556-24.577.593c3.694 1.46 7.34 3.008 10.988 4.605 9.576 4.285 18.968 8.892 28.18 13.952z" fill="#161615" fill-rule="nonzero"/><path d="M520.807 292.646l-4.97.457-.092.044a1679.71 1679.71 0 01-52.435 2.874c-17.463.684-34.925 1.185-52.481 1.049-17.508-.092-35.108-1.049-52.525-2.737-16.507-1.641-32.876-3.556-49.244-7.248v6.564l-1.46.547-.136.092c-11.582 3.875-22.706 4.697-34.105 5.836-11.309.867-22.708 1.322-34.198 1.049-22.934-.73-45.686-5.108-67.572-10.761-5.517-1.368-10.989-2.918-16.188-3.83-5.425-.911-10.942-1.641-16.505-2.235-11.126-1.229-22.341-2.096-33.603-2.825-22.433-1.46-44.959-2.828-67.482-3.74l-1.915-.091-.275-1.779-.044-.09-4.879-32.418-.092-.73.547-.319.092-.092c2.417-1.458 4.879-2.325 7.477-2.964 2.508-.728 5.336-1.003 7.66-1.368.867-.136 1.597-.365 2.281-.82h.046a5.933 5.933 0 002.507-2.463c.683-1.185 1.094-2.735 1.185-4.24l-6.975-.73-18.878-1.915-3.283-.319.273-3.419v-.046l2.737-24.621.273-2.234 2.098-.137h.046c15.456-1.095 30.913-2.007 46.416-2.599l2.965-.138h.455c.09 0 .136-.044.227 0 3.146-.136 6.339-.227 9.53-.273 4.833-.136 9.712-.136 14.591-.046 4.103.046 8.116.183 12.083-.09.592-.046 1.231-.092 1.823-.137-1.003-.138-2.051-.274-3.1-.411-3.739-.455-7.523-.776-11.307-1.049a476.942 476.942 0 00-14.044-.775c-2.599-.137-5.245-.227-7.844-.319-.319-.045-.591-.045-.91-.045-.319 0-.64 0-.959-.046-1.139 0-2.234-.046-3.373-.092-13.816-.409-27.677-.546-41.493-.592h-2.461l-.912-2.234v-.046c-1.368-3.875-3.01-7.705-4.833-11.399-1.87-3.694-4.013-7.386-6.293-10.579l-.592-.82v-.684l.545-40.717.047-1.458h1.459l21.339-.639a99.188 99.188 0 00-5.199-2.918c-1.915-1.003-3.874-1.916-5.789-2.599a24.149 24.149 0 00-2.828-.775c-1.276-.228-2.553-.547-3.83-1.095-2.553-1.048-4.97-3.1-6.338-5.745a13.496 13.496 0 01-1.367-4.011c-.273-1.278-.273-3.056-.365-3.604-.502-3.738-2.052-8.16-3.51-12.127L11 84.046l5.198.365a2864.442 2864.442 0 0156.037 4.103c8.754.73 17.509 1.46 26.217 2.234l.046 5.198c-8.846-.73-17.736-1.322-26.628-1.915a2750.687 2750.687 0 00-51.204-2.645c.821 2.874 1.551 5.791 1.916 9.12.046 1.687 0 2.142.136 3.145a7.6 7.6 0 00.639 2.326c.683 1.414 1.778 2.507 3.374 3.237.774.411 1.64.638 2.553.867.866.228 1.686.411 2.462.73l.137.046 82.575 13.358-.138 1.049-69.943-7.751a101.938 101.938 0 016.428 4.514h.046l5.653 4.332-7.021-.229-27.312-.774 1.048 38.391c2.828 3.192 5.198 6.52 7.479 9.985a82.593 82.593 0 015.288 9.394c13.178.182 26.31.455 39.441 1.002 1.14.046 2.234.092 3.374.137.365 0 .684.046 1.049.046.365 0 .776.046 1.139.046l7.524.409c2.828.137 5.654.321 8.481.548 1.458.046 2.872.182 4.286.274.547.045 1.049.091 1.596.137 3.875.365 7.705.73 11.626 1.231 1.915.273 3.876.546 5.882.957.547.136 1.095.228 1.642.411.456.09.957.227 1.414.365 1.049.365 2.188.684 3.692 1.777l.183.092.092.136c.182.183.319.365.409.548l5.289.866 12.813 2.052 4.241.684 1.231.182 8.845 1.414 11.856 1.915-.139 1.185-10.851-.547-14.089-.73-20.289-1.003c-.365.319-.776.548-1.095.73-.638.319-1.185.547-1.733.73-.729.227-1.367.363-2.005.501a33.761 33.761 0 01-4.105.546c-.82.092-1.687.138-2.507.183-4.241.182-8.481.046-12.584-.091-4.424-.136-8.846-.136-13.269-.136-3.74.044-7.478.09-11.216.182-1.961.045-3.967.091-5.928.183-.866 0-1.733.044-2.599.09-.502 0-.957 0-1.414.046-12.31.409-24.667.957-36.977 1.733l-.593 19.423L55 226.077h.046l2.005.411v.273c3.42-.183 6.841-.091 10.168.136 7.342.457 14.546 1.642 21.613 3.01a1674.249 1674.249 0 0041.766 7.797c2.326.409 4.604.774 6.838 1.047h.047c4.696-1.275 9.347-1.869 13.998-2.37 5.334-.548 10.669-.867 16.003-1.093a494.516 494.516 0 0131.873-.229c-10.579.501-21.204 1.322-31.735 2.507a302.199 302.199 0 00-15.686 2.19c-.957.182-1.96.365-2.918.547.866.137 1.733.319 2.645.456l20.975 3.738c13.996 2.372 27.95 5.108 42.175 5.38-7.113.776-14.271.411-21.384-.046-7.113-.455-14.181-1.093-21.294-1.777l-21.156-2.508c-3.465-.365-7.203-.867-10.304-1.003-3.74 0-7.342-.411-10.898-.774-14.271-1.46-28.269-3.831-42.359-6.02-6.931-1.094-13.769-1.96-20.608-2.142-3.421-.047-6.794 0-10.077.318-.638.091-1.278.137-1.87.229-.092.182-.182.409-.318.592-1.687 2.599-4.834 4.285-7.707 4.468-2.78.228-5.06.228-7.569.684-2.142.365-4.422.958-6.337 1.871l6.702 29.454c22.024.182 44.046.455 66.068 1.504 11.309.502 22.616 1.139 33.924 2.144 5.654.501 11.353 1.139 17.099 2.005 5.926 1.049 11.307 2.509 16.779 3.831 21.794 5.471 43.68 9.53 65.93 10.075 11.08.548 22.251.139 33.469-.182a335.262 335.262 0 0016.734-.82c5.015-.227 10.258-.729 14.863-1.551v-6.018l-.045-2.782 2.872.594c16.734 3.51 34.197 5.198 51.478 6.474 17.326 1.277 34.653 1.825 51.98 1.46 17.371-.275 34.743-1.186 52.116-2.281 15.867-1.048 31.78-2.28 47.555-3.738l-2.462-58.728c-3.831-.866-7.613-1.823-11.444-2.827l-2.189-.638h-.137l-133.642 1.368 115.952-9.165 7.25-3.602 20.016-7.615 4.787-33.102-22.387 1.642h-.092l-2.234.137-2.826-1.232-3.102-.365c-2.736.183-5.654-.365-8.389-.09-1.504.136-2.964.319-4.468.501-2.463.273-4.924.592-7.386.957-1.551.229-3.057.455-4.605.684-2.28.365-4.514.776-6.748 1.231a111.758 111.758 0 00-7.753 1.641c-.684.138-1.412.321-2.096.503-1.141.227-2.234.546-3.375.865-4.103 1.05-8.162 2.235-12.22 3.511-.09.046-.136.046-.228.046-1.414.456-2.826.867-4.286 1.185a83.489 83.489 0 01-14.955 2.327c-4.468.363-8.982.363-13.45.182-.319 0-.64-.046-.959-.046-1.003-.092-2.005-.136-3.008-.274-2.28-.181-4.514-.456-6.748-.729-7.934-1.095-15.777-2.781-23.346-5.152 7.204 1.687 14.59 2.69 21.932 3.191 1.915.137 3.784.229 5.699.273 1.095.046 2.234.092 3.329.092h2.188a120.13 120.13 0 0011.49-.684c1.688-.136 3.375-.365 5.015-.593 3.831-.684 7.661-1.505 11.355-2.644 1.504-.411 3.008-.958 4.468-1.506.41-.182.821-.319 1.232-.455 4.149-1.641 8.389-3.054 12.674-4.332 4.378-1.321 8.8-2.462 13.224-3.465 1.823-.456 3.646-.867 5.471-1.231.319-.091.684-.137 1.003-.183 4.24-.866 8.481-1.641 12.767-2.234a64.32 64.32 0 012.964-.455c2.826-.411 5.607-.776 8.435-1.049l4.013-1.095 2.188-.957 2.005-.365 19.652-3.738 1.231-30.14-18.466 1.46 18.695-7.889v-.045l.593-15.183c-21.567.273-43.133.273-64.7-.684v-1.506c21.793 1.005 43.635 1.005 65.474.776l.684-.046.046.73v.136l2.234 54.898.092 2.509-2.599.363-.092.046-20.107 2.553.091 3.056 21.657.501 1.369.046-.182 1.14v.09l2.553 38.21.273 3.419-3.237 1.095-.091.046-.457.137-.09.046-13.178 3.874 1.825.821 12.219 5.061.867.319h.136l.502.275.09 1.368v.136l7.797 64.564.548 4.741z" fill="#161615" fill-rule="nonzero"/><path d="M103.942 21.625c-.137 0-.319-.046-.502-.046-.136 0-.318-.046-.5 0-.593-.092-1.186-.092-1.778-.092-.593 0-1.187 0-1.733.092-.182-.046-.365 0-.547 0-.183 0-.365.046-.548.046-14.682 1.412-26.217 13.86-26.217 28.907s11.49 27.449 26.171 28.909c.183 0 .365.044.594.044.182 0 .365.046.592 0 .547.092 1.095.092 1.688.092.592 0 1.14 0 1.687-.092.228.046.41 0 .591 0 .23 0 .411-.044.594-.044 14.682-1.46 26.171-13.862 26.171-28.909 0-15.047-11.535-27.495-26.263-28.907zm-2.78 4.422c.546 0 1.14 0 1.687.092.182 0 .41 0 .591.045.183 0 .411 0 .594.046 12.13 1.414 21.613 11.764 21.613 24.302 0 12.494-9.44 22.844-21.523 24.258-.226.09-.455.09-.684.09-.226.046-.455.091-.683.046-.546.091-1.049.091-1.595.091-.547 0-1.095 0-1.642-.091-.229 0-.41 0-.638-.046-.229 0-.41 0-.64-.046-12.127-1.458-21.566-11.808-21.566-24.302 0-12.492 9.44-22.844 21.566-24.302.23-.046.411-.046.64-.046.227-.045.41-.045.638-.045.547-.092 1.095-.092 1.642-.092z" fill="#e99651" fill-rule="nonzero"/><path d="M121.862 29.832c-4.788-4.787-11.216-7.843-17.92-8.571-.183-.046-.319-.046-.502-.046-.136-.046-.318-.046-.5-.046-.593-.045-1.186-.091-1.778-.091-.593 0-1.14.046-1.733.091-.182 0-.365 0-.547.046-.183 0-.365 0-.548.046-6.748.728-13.222 3.692-17.964 8.481-5.47 5.425-8.664 13.086-8.664 20.791s3.1 15.32 8.391 21.019c4.695 4.971 11.261 8.481 18.237 9.075.183.044.365.09.548.044.182.046.365.046.547.046.592.046 1.14.046 1.733.046.546 0 1.14-.046 1.687-.092.182 0 .41 0 .591-.044.183 0 .411 0 .594-.046 6.885-.73 13.451-3.967 18.238-8.937 5.472-5.609 8.573-13.36 8.435-21.111-.137-7.751-3.374-15.32-8.845-20.701zm-20.7 48.56c-.547 0-1.14-.046-1.688-.092-.183 0-.365 0-.592-.044-.183 0-.365 0-.594-.046-6.29-.64-12.447-3.147-17.144-7.661-2.69-2.553-4.97-5.607-6.428-9.073-1.46-3.465-2.188-7.205-2.234-10.943 0-7.523 3.054-14.955 8.39-20.29 4.65-4.696 10.943-7.706 17.462-8.254.183-.044.365-.044.548-.044.182-.046.365-.046.547-.046.592-.046 1.14-.046 1.733-.046.592 0 1.185 0 1.777.092a.927.927 0 01.501 0c.183 0 .32 0 .502.044 6.566.548 12.95 3.512 17.555 8.208 5.381 5.289 8.39 12.857 8.253 20.336-.092 7.478-3.283 14.818-8.617 19.926-4.607 4.512-10.762 7.25-17.053 7.797-.229.044-.41.044-.64.044-.226.046-.409.046-.637.046-.548.046-1.095.046-1.64.046z" fill="#161615" fill-rule="nonzero"/><path d="M119.081 32.613c-3.967-4.103-9.348-6.838-15.047-7.568-.183-.046-.365-.046-.594-.046-.182-.046-.363-.091-.547-.046a10.668 10.668 0 00-1.73-.137c-.549 0-1.142 0-1.69.046-.182 0-.409 0-.59.046-.184 0-.366 0-.595.045-5.699.639-11.08 3.694-14.955 7.751-4.468 4.879-7.067 11.308-7.067 17.828s2.69 12.996 7.34 17.554c3.923 3.967 9.12 6.384 14.636 7.069.183.091.411.091.64.091.182.046.41.09.637.046.548.09 1.095.136 1.643.136.545 0 1.093-.046 1.594-.092.23 0 .457-.044.684-.044.23-.046.457-.046.684-.093 5.473-.729 10.625-3.282 14.546-7.157 4.56-4.607 7.341-10.944 7.478-17.51.09-6.566-2.463-13.131-7.067-17.919zM104.124 74.47c-.227.046-.455.092-.684.046a1.162 1.162 0 01-.684.046c-.5.09-1.049.09-1.594.09-.548 0-1.095 0-1.643-.09a1.487 1.487 0 01-.637 0c-.229 0-.41-.046-.64-.092-5.334-.546-10.394-3.101-14.134-6.885-4.513-4.468-7.068-10.715-7.068-17.053-.044-6.337 2.645-12.63 7.296-16.824 3.83-3.648 8.8-5.609 13.862-6.247.227-.046.455-.046.684-.092.226 0 .455-.044.683-.044.548-.046 1.05-.092 1.597-.092.545 0 1.093 0 1.64.046.23 0 .411 0 .638.046.23 0 .411.044.64.044 5.106.548 10.075 2.782 13.815 6.43 4.513 4.285 7.204 10.442 7.294 16.733.137 6.293-2.37 12.631-6.884 17.145-3.739 3.784-8.846 6.201-14.18 6.793z" fill="#161615" fill-rule="nonzero"/><path d="M101.162 33.767c-1.26 0-2.28-1.02-2.28-2.28v-41.33a2.279 2.279 0 114.559 0v41.33c0 1.26-1.02 2.28-2.279 2.28z" fill="#e99651" fill-rule="nonzero"/><path d="M104.124 29.014l-.044-2.645-.046-1.139v-1.185l-.046-1.095-.046-1.962v-.728l-.183-9.439-.09-12.127-.046-6.065c-.045-1.003.046-2.006-.137-3.056-.228-1.047-1.23-1.823-2.324-1.823-1.095-.046-2.144.776-2.372 1.823-.137 1.095-.045 2.053-.09 3.056l-.093 6.065-.136 12.127-.137 9.44v.727l-.046 1.962v1.003l-.046 1.277-.044 1.231-.046 2.553c.046 1.095-.09 1.825.046 3.193.273 1.367 1.594 2.37 2.964 2.324 1.368 0 2.643-1.003 2.918-2.324.136-1.368 0-2.098.044-3.193zm-1.322-2.735l-.046 2.735c0 .913.046 2.188-.09 2.828-.182.684-.82 1.185-1.504 1.14-.684 0-1.277-.502-1.46-1.14-.136-.64-.09-1.915-.09-2.828l-.046-2.689-.046-1.186-.046-1.277v-.912l-.045-2.052v-.73l-.138-9.347-.136-12.127-.09-6.065c.044-1.003-.093-2.052.044-2.964.182-.957 1.094-1.64 2.053-1.64.957-.047 1.87.683 2.096 1.64.092.912 0 1.961 0 2.964l-.044 6.065-.093 12.127-.182 9.347v.776l-.046 2.006v1.003l-.044 1.186-.047 1.14z" fill="#161615" fill-rule="nonzero"/><path d="M101.162 110.725c-1.26 0-2.28-1.02-2.28-2.28V67.119a2.278 2.278 0 012.28-2.278 2.278 2.278 0 012.279 2.278v41.326c0 1.26-1.02 2.28-2.279 2.28z" fill="#e99651" fill-rule="nonzero"/><path d="M104.17 66.4c-.273-1.368-1.64-2.416-3.008-2.37-1.37 0-2.69 1.048-2.964 2.37-.137 1.368 0 2.098-.046 3.193l.09 4.877v1.187l.046 2.553v1.231l.046 1.186.091 7.157.046 2.964.046 5.199.046 3.966.044 6.065c.046 1.003-.09 1.959.092 3.054.273 1.141 1.322 1.961 2.463 1.915 1.14.046 2.188-.774 2.461-1.915.182-1.095.092-2.051.092-3.054l.09-6.065.046-3.511v-5.106l.046-3.512.137-7.203v-1.14l.046-1.185.044-2.599V74.47l.092-4.877c-.046-1.095.091-1.825-.046-3.193zm-1.414 9.257l.046 2.69.047 1.139v1.185l.136 7.113.046 3.42v5.107l.046 3.602.09 6.065c-.046.957.047 2.097-.046 2.964-.182.866-1.048 1.55-1.959 1.55-.913 0-1.779-.684-1.96-1.55-.093-.867 0-2.007-.047-2.964l.046-6.065.046-3.92.044-5.153.046-3.056.092-7.067.045-1.231v-1.185l.046-2.644v-1.095l.092-4.969c.044-.913-.046-2.19.09-2.828.136-.684.82-1.139 1.46-1.095.638 0 1.276.457 1.412 1.095.138.638.092 1.915.092 2.828l.09 4.969v1.095z" fill="#161615" fill-rule="nonzero"/><path d="M442.492 28.418c-.183 0-.319-.044-.502-.044-.182 0-.319-.046-.501 0-.594-.092-1.187-.092-1.779-.092-.593 0-1.141 0-1.733.092-.182-.046-.365 0-.547 0-.183 0-.365.044-.548.044-14.681 1.414-26.217 13.816-26.217 28.909 0 15.047 11.491 27.448 26.173 28.907.183 0 .409.046.592.046.182 0 .411.046.593 0 .546.09 1.14.09 1.687.09.548 0 1.139 0 1.687-.09.182.046.411 0 .593 0 .183 0 .409-.046.592-.046 14.682-1.459 26.173-13.86 26.173-28.907 0-15.093-11.535-27.495-26.263-28.909zm-2.782 4.424c.548 0 1.139 0 1.687.09.182 0 .411 0 .593.046.183 0 .409 0 .592.046 12.129 1.413 21.613 11.763 21.613 24.303 0 12.492-9.438 22.842-21.567 24.302-.229.046-.411.046-.638.046-.228.044-.457.09-.684.044-.547.092-1.048.092-1.596.092-.547 0-1.095 0-1.642-.092-.227.046-.41 0-.638-.044-.229 0-.409 0-.638-.046-12.129-1.46-21.567-11.81-21.567-24.302 0-12.494 9.438-22.844 21.567-24.303.229-.046.409-.046.638-.046.228-.046.411-.092.638-.046.547-.09 1.095-.09 1.642-.09z" fill="#e99651" fill-rule="nonzero"/><path d="M460.411 36.58c-4.787-4.787-11.217-7.843-17.919-8.527-.183-.044-.319-.044-.502-.044-.136-.046-.318-.046-.501-.046a23.06 23.06 0 00-1.779-.092c-.593 0-1.141.046-1.732.092-.183 0-.365 0-.548.046-.182 0-.365 0-.547.044-6.749.684-13.222 3.648-17.965 8.481-5.471 5.427-8.662 13.042-8.662 20.793 0 7.705 3.1 15.32 8.389 21.019 4.697 4.97 11.263 8.481 18.238 9.073.182.046.365.092.547.046.183.046.365.046.548.046.591.046 1.139.046 1.732.046a20.7 20.7 0 001.687-.092c.182 0 .411 0 .593-.046.183 0 .365 0 .546-.044 6.931-.73 13.497-3.967 18.286-8.939 5.471-5.607 8.525-13.358 8.435-21.109-.137-7.751-3.375-15.32-8.846-20.747zM439.71 85.185c-.547 0-1.141-.045-1.686-.091-.183 0-.365 0-.594-.046-.182 0-.365 0-.592-.046-6.293-.638-12.494-3.145-17.144-7.659-2.69-2.553-4.97-5.609-6.43-9.074-1.458-3.466-2.188-7.204-2.234-10.942-.046-7.525 3.055-15.001 8.389-20.291 4.653-4.695 10.944-7.705 17.464-8.253.182-.046.365-.046.547-.046.183-.044.365-.044.548-.044.591-.046 1.139-.046 1.732-.046.592 0 1.186 0 1.779.09a.967.967 0 01.501 0c.183 0 .319 0 .502.046 6.566.548 12.949 3.512 17.554 8.162 5.38 5.335 8.389 12.857 8.252 20.382-.09 7.476-3.283 14.818-8.663 19.924-4.605 4.514-10.76 7.25-17.053 7.797-.182.046-.409.046-.592.046-.228.046-.411.046-.639.046-.546.045-1.093.045-1.641.045z" fill="#161615" fill-rule="nonzero"/><path d="M457.584 39.408c-3.921-4.105-9.302-6.84-15.001-7.568-.183-.046-.365-.046-.592-.046-.183-.046-.365-.092-.548-.046a10.578 10.578 0 00-1.732-.137c-.548 0-1.141 0-1.687.045-.182 0-.411 0-.593.046-.183 0-.365 0-.592.046-5.7.637-11.08 3.694-14.957 7.751-4.468 4.879-7.067 11.308-7.067 17.828s2.691 12.994 7.342 17.554c3.921 3.967 9.119 6.384 14.636 7.067.182.093.409.093.638.093.182.044.411.09.637.044a9.901 9.901 0 001.643.138c.547 0 1.095-.046 1.596-.092.227 0 .455-.046.684-.046.227-.044.455-.044.638-.091a25.754 25.754 0 0014.591-7.159c4.559-4.605 7.34-10.988 7.477-17.508.092-6.566-2.507-13.131-7.113-17.919zm-14.909 41.857c-.229.046-.457.092-.684.046-.229.09-.457.09-.684.046-.547.09-1.049.09-1.596.09-.548 0-1.095 0-1.643-.09a1.553 1.553 0 01-.637 0c-.229 0-.41-.046-.638-.092-5.335-.548-10.396-3.101-14.135-6.885-4.514-4.468-7.067-10.761-7.067-17.053-.046-6.339 2.643-12.63 7.294-16.825 3.83-3.648 8.8-5.608 13.862-6.247.228-.045.455-.045.684-.091.228 0 .457-.046.683-.046.548-.044 1.049-.09 1.597-.09.547 0 1.095 0 1.64.046.229 0 .411 0 .64.044.227 0 .409.046.638.046 5.106.548 10.077 2.782 13.815 6.43 4.515 4.285 7.204 10.44 7.296 16.733.137 6.292-2.372 12.631-6.885 17.099-3.74 3.83-8.892 6.245-14.18 6.839z" fill="#161615" fill-rule="nonzero"/><path d="M439.707 41.555c-1.26 0-2.28-1.02-2.28-2.28V-2.054c0-1.26 1.02-2.28 2.28-2.28a2.277 2.277 0 012.279 2.28v41.33c0 1.26-1.019 2.28-2.279 2.28z" fill="#e99651" fill-rule="nonzero"/><path d="M442.675 36.81l-.046-2.646-.046-1.139V31.84l-.046-1.095-.045-1.96v-.73l-.182-9.439-.092-12.129-.09-6.062c0-1.005.09-2.008-.093-3.056-.226-1.049-1.229-1.824-2.324-1.824-1.095-.046-2.144.73-2.371 1.824-.182 1.048-.046 2.051-.092 3.056l-.09 6.062-.137 12.13-.138 9.437v.73l-.044 1.961v1.003l-.046 1.278-.046 1.23-.046 2.554c.046 1.093-.091 1.823.046 3.191.274 1.367 1.596 2.37 2.964 2.326 1.368 0 2.645-1.005 2.918-2.326.136-1.368 0-2.142.046-3.19zm-1.323-2.737l-.045 2.736c-.046.911.045 2.188-.092 2.826-.182.684-.82 1.185-1.504 1.141-.684 0-1.277-.502-1.46-1.14-.136-.639-.09-1.916-.09-2.827l-.046-2.69-.046-1.187-.045-1.277v-.91l-.046-2.052v-.73l-.182-9.348-.092-12.129-.091-6.062c.046-1.005-.09-2.054.046-2.964.183-.959 1.095-1.643 2.052-1.643.957-.046 1.869.684 2.098 1.597.09.956 0 2.005 0 3.01l-.047 6.062-.136 12.13-.136 9.347v.774l-.046 2.007v1.003l-.046 1.185-.046 1.141z" fill="#161615" fill-rule="nonzero"/><path d="M439.707 117.514c-1.26 0-2.28-1.02-2.28-2.28V73.908a2.279 2.279 0 114.559 0v41.326c0 1.26-1.019 2.28-2.279 2.28z" fill="#e99651" fill-rule="nonzero"/><path d="M442.72 73.194c-.274-1.368-1.642-2.417-3.01-2.371-1.367 0-2.689 1.003-2.964 2.371-.182 1.368 0 2.097-.046 3.191l.092 4.879v1.185l.046 2.553v1.231l.045 1.186.092 7.159.046 6.885v1.55l.044 3.694.092 6.065c0 1.002-.092 1.959.091 3.054.228 1.139 1.321 1.959 2.462 1.915 1.14.044 2.188-.776 2.463-1.915.182-1.095.044-2.052.09-3.054l.092-6.065.045-3.465v-1.506l.046-7.158.09-7.204.046-1.141v-1.185l.046-2.599v-.82l.046-.365.091-4.879c-.045-1.094.092-1.823-.045-3.191zm-1.413 9.255l.044 2.691.046 1.14v1.185l.136 7.113.046 7.158v1.506l.047 3.465.046 6.065c0 .956.09 2.051 0 2.962-.183.866-1.049 1.55-1.962 1.55-.912 0-1.778-.684-1.961-1.55-.09-.911 0-2.006-.046-2.962l.046-6.065.046-3.694v-1.504l.092-6.931.091-7.067.046-1.231v-1.186l.044-2.645v-1.093l.092-4.971c.046-.911-.046-2.188.09-2.826.139-.684.823-1.141 1.46-1.095.638 0 1.232.455 1.414 1.095.137.592.045 1.915.091 2.826l.092 4.971v1.093z" fill="#161615" fill-rule="nonzero"/><path d="M114 159.415c.047-1.504-.272-2.782-.956-3.875.548-.73.82-1.733.867-3.056.046-1.322-.275-2.324-.96-3.008-.683-.73-1.55-1.049-2.598-1.095-1.003-.046-1.823 0-2.507.092.137.592.229 1.003.229 1.231-.046.957-.411 1.412-1.05 1.368-.364 0-.73-.046-1.094-.138l-3.054-.957c-1.643-.547-3.602-.82-5.882-.912-3.648-.091-6.795.274-9.484 1.141-1.278-1.005-2.691-1.506-4.332-1.551-1.596-.046-3.01.319-4.286 1.049-1.141-.822-2.462-1.277-3.876-1.277-1.458-.046-2.736.228-3.875.866-.547.273-.958.592-1.277 1.003-.32.365-.456.82-.456 1.277-.046.456.09.867.319 1.232.548-.365 1.322-.548 2.28-.548 2.098.091 3.556 1.049 4.286 2.918l-.457 15.001c0 1.185-.455 2.234-1.276 3.101-.501.591-1.55 1.185-3.192 1.869 1.687.912 2.918 1.823 3.602 2.735.41.548.593 1.324.593 2.417l-.136 3.83-.183 6.839c1.14.046 2.234.092 3.374.092l.046-1.323c.046-2.052.09-3.875.136-5.471.092-3.875 0-6.246-.182-7.068-.137-.73-.957-1.321-2.371-1.869 1.322-.365 2.144-1.049 2.507-1.961.32-1.139.594-5.836.866-14.135.365.229.822.64 1.278 1.232.41.593.638 2.28.638 5.107 0 .911-.045 2.188-.091 3.739 0 1.55-.092 4.696-.228 9.391-.091 2.098-.137 3.967-.23 5.656-.09 2.097-.18 3.92-.318 5.379-.044.503-.09 1.004-.182 1.413 2.599.092 5.244.183 7.843.319l.182-6.702.183-5.561c.774-.365 1.869-.548 3.283-.504 1.414 0 2.645.275 3.648.686 1.185.592 1.777 1.96 1.686 4.148-.046.639-.136 1.231-.318 1.778-.093.411-.275.776-.502 1.141.502.41 1.093.592 1.733.638.957 0 1.777-.273 2.553-.958.182-.137.319-.319.5-.546.184-.229.366-.501.503-.822a5.329 5.329 0 00.455-1.869 6.66 6.66 0 00-.363-2.188c1.003-1.095 1.55-2.417 1.594-3.967.046-1.504-.41-2.874-1.367-4.013.318-.774.5-1.504.5-2.142 0-.686-.09-1.323-.318-1.915-.684-1.642-1.823-2.509-3.42-2.555-.775-.044-1.367.138-1.778.457.457.82.684 2.098.639 3.785-.046 1.64-.593 2.735-1.642 3.146-.547.273-1.276.409-2.324.501-.411.045-.822.091-1.232.091h-1.55c-.64-.046-1.323-.273-2.098-.73l.502-16.459c1.733-2.098 4.65-3.101 8.8-2.964 3.373.09 5.79 1.596 7.25 4.604a18.62 18.62 0 011.55 4.469c.136.684.228 1.277.319 1.915.046.593.092 1.368.046 2.234-.046.912-.183 1.688-.548 2.28.775.455 1.55.684 2.37.684.959.046 1.734-.319 2.417-1.139.365-.365.64-.867.867-1.46.274-.592.365-1.276.41-2.052a6.93 6.93 0 00-.41-2.324c1.003-1.005 1.506-2.28 1.55-3.74zm-20.836 41.583c-1.55-.044-2.827-.455-3.738-1.276-.548-.365-.96-.958-1.277-1.688l.136-4.057a328.55 328.55 0 00-9.53.273c-.09.046-.136.046-.227.092v-.092h-.455l-2.964.138-.092 3.373c-.592 1.232-1.504 2.006-2.736 2.326a4.227 4.227 0 01-1.732.227 2.69 2.69 0 01-.867-.136c-.411-.046-.774-.229-1.095-.502-.136.183-.226.365-.32.548-.09.182-.09.455-.135.684 0 .912.5 1.686 1.504 2.37.457.319 1.049.548 1.687.776a9.697 9.697 0 002.555.319c1.048.044 2.142-.319 3.373-1.003 1.23.775 2.599 1.186 4.195 1.23 1.64.046 3.055-.273 4.332-.957a8.814 8.814 0 004.24 1.232c1.504.046 2.78-.229 3.876-.867.5-.274.912-.593 1.185-1.003.273-.411.41-.822.456-1.277 0-.501-.137-.912-.365-1.277-.546.411-1.23.593-2.006.547zM167.485 202.505c-.592.363-1.413.545-2.507.501-1.05-.046-2.098-.593-3.101-1.733l-.776-2.28-.866-2.553-4.651-13.633a5.32 5.32 0 01-.227-1.55c.045-1.596 1.276-2.736 3.692-3.421a24.642 24.642 0 01-1.96-.867c-2.233-1.093-3.603-2.553-4.148-4.422l-4.105-14.682c.547-2.142 1.596-3.19 3.192-3.146.73 0 1.368.228 1.915.639.273-.318.456-.73.456-1.231.046-1.003-.365-1.825-1.232-2.463-.82-.591-2.051-.956-3.601-1.002-1.597-.046-3.147.411-4.697 1.277-1.003-.958-2.417-1.506-4.194-1.55-1.732-.046-3.238.409-4.468 1.368-1.141-1.005-2.51-1.551-4.195-1.643-1.643-.046-2.964.319-3.877 1.049-.41.365-.728.73-1.002 1.231a3.318 3.318 0 00-.365 1.505c0 .501.092 1.002.32 1.459.91-.457 1.869-.639 2.916-.593 1.05 0 1.962.547 2.692 1.596l-4.332 13.04c-.774 2.098-1.733 3.83-2.964 5.062-.774.82-2.142 1.55-4.057 2.234 2.05.637 3.008 2.051 2.962 4.195a8.83 8.83 0 01-.363 2.052l-.822 2.416-1.093 2.964-4.242 11.444-.182.457a7.844 7.844 0 01-1.505 1.093c-.501.228-1.275.365-2.28.32-1.002-.046-1.87-.274-2.553-.683-.228.363-.365.91-.41 1.686 0 .73.32 1.414.958 2.006.684.638 1.55.958 2.689.958 1.14.045 2.144-.228 3.056-.866a4.053 4.053 0 002.78 1.049c1.14.044 2.098-.229 2.964-.776.959.593 2.053.956 3.193.956 1.185.047 2.142-.18 2.872-.728.776-.547 1.14-1.185 1.185-1.915 0-.776-.09-1.368-.363-1.779-.686.365-1.733.548-3.101.502-1.414-.046-2.555-.821-3.511-2.371l2.599-7.797 6.929.229 12.357.364.456 1.687 1.095 4.103.866 3.375c-.547.546-1.55.821-2.964.775-.684-.046-1.322-.229-1.96-.684-.228.182-.411.593-.411 1.231 0 1.139.502 2.006 1.414 2.645.957.638 2.142.957 3.556 1.003 1.46.046 2.736-.275 3.83-1.049 1.095.82 2.417 1.276 3.967 1.322 1.55.046 2.964-.319 4.24-1.093 1.049.82 2.326 1.275 3.83 1.321 1.46.046 2.599-.274 3.375-.958.364-.319.638-.728.82-1.139a3.79 3.79 0 00.273-1.458c.047-.504-.09-.867-.364-1.049zm-39.715-15.412l8.938-27.22 7.433 27.721-16.371-.501zm21.248 4.195c-.638-2.007-2.507-8.344-5.653-19.06-.456-1.596-1.368-5.334-2.782-11.126.229.046.502.229.82.503 1.005.867 1.733 2.142 2.19 3.829l2.006 6.748c.228.684.41 1.186.547 1.551.137.365.229.639.365.866.09.228.183.457.273.593.092.183.229.41.41.684.32.73 1.323 1.278 2.919 1.641-1.185.411-1.78 1.231-1.823 2.599 0 .776.409 2.782 1.276 5.928l1.23 4.24c.412 1.506.639 3.1.594 4.743v.136c-.046.912-.274 1.414-.683 1.414l-.548-1.733-1.141-3.556zM221.06 204.281c-.548.411-1.186.594-1.962.548a5.136 5.136 0 01-2.188-.502c-2.143-1.094-3.19-3.329-3.1-6.748l.136-3.556c.047-2.827-.637-5.29-2.142-7.388-1.46-2.051-3.375-3.419-5.79-4.147 4.695-1.005 7.705-3.877 9.027-8.527.638-2.28 1.916-3.877 3.785-4.879-1.916-.957-3.01-2.325-3.282-4.104-.639-3.967-2.554-7.113-5.7-9.438-1.55-1.094-3.42-2.007-5.61-2.691-2.188-.637-4.924-1.048-8.207-1.139-3.282-.092-6.246.319-8.981 1.276-1.185-.821-2.553-1.276-4.103-1.322a7.61 7.61 0 00-4.15 1.049 7.032 7.032 0 00-3.877-1.277c-1.411-.045-2.689.274-3.784.912-.502.228-.867.593-1.14.958-.317.41-.454.821-.454 1.322-.047.455.09.866.318 1.231.548-.411 1.23-.593 2.053-.547 2.096.046 3.508 1.003 4.285 2.872l-.456 15.047c-.046 1.141-.457 2.19-1.322 3.1-.457.548-1.552 1.186-3.191 1.869 1.732.913 2.917 1.825 3.601 2.692.456.547.637 1.367.591 2.462l-.5 17.418c-.867 1.777-2.371 2.643-4.469 2.599-.82-.046-1.504-.275-2.006-.684a1.991 1.991 0 00-.41 1.229c-.047.959.455 1.733 1.46 2.373a6.066 6.066 0 001.733.774c.637.228 1.504.319 2.506.365 1.05 0 2.189-.319 3.42-1.049 1.186.82 2.554 1.231 4.104 1.277 1.55.045 2.918-.318 4.195-1.002 1.14.774 2.416 1.185 3.922 1.229 1.503.046 2.643-.227 3.42-.866.773-.638 1.138-1.276 1.184-2.006 0-.684-.091-1.185-.364-1.55-.502.365-1.185.548-2.006.548-1.826-.047-3.01-.959-3.603-2.646l.547-17.371 4.148.136c1.414.046 2.646.365 3.648.913 3.101 1.733 4.561 5.38 4.379 10.851l-.047 2.646c-.136 3.373.365 5.926 1.415 7.613.5.776 1.095 1.323 1.779 1.688a4.225 4.225 0 002.095.546 3.465 3.465 0 002.097-.546c1.733.957 3.602.911 5.61-.138 1.093.639 2.188 1.004 3.327 1.049 1.141 0 2.143-.273 3.056-.911.41-.275.73-.64.958-1.005.274-.409.41-.866.41-1.321 0-.456-.093-.867-.365-1.232zm-39.715-31.917c-.046 1.551-.136 4.651-.272 9.394-.139 4.697-.32 8.389-.548 11.034-.181 2.643-.912 4.195-2.097 4.605l.137-4.651c.227-7.204.227-11.353-.047-12.492-.18-.73-.957-1.368-2.37-1.915 1.278-.365 2.143-1.005 2.508-1.962.32-1.139.593-5.836.82-14.088.41.182.821.592 1.276 1.185.457.592.686 2.325.64 5.106 0 .959 0 2.188-.047 3.784zm20.428.822c-.091 2.371-.684 4.058-1.779 5.06-.547.502-1.185.821-1.915 1.003-.73.183-2.006.229-3.83.183-1.822-.045-3.19-.319-4.103-.73-.956-.456-1.413-1.322-1.367-2.553l.454-14.59c.093-3.512 2.417-5.244 6.977-5.062.82 0 1.596.137 2.325.456 2.463.866 3.603 2.827 3.512 5.791l-.274 10.442zm3.649-6.156c.136-3.648-.184-6.337-.867-8.024.637.136 1.14.592 1.594 1.368.23.455.457 1.048.684 1.777.228.73.411 1.732.594 2.918.183 1.187.41 2.053.684 2.554.273.456.867.867 1.779 1.186-1.278.409-2.099 1.367-2.373 2.872l-.363 1.459c-.64 3.237-1.643 4.924-2.964 5.153.637-1.186 1.048-4.97 1.232-11.263zm1.228 36.385c-1.55-.319-2.278-2.417-2.142-6.383l.137-4.697c.046-1.549-.41-2.872-1.322-3.967 1.093-.136 2.052.457 2.918 1.825.502.774.73 2.142.638 4.013l-.136 4.969a7.515 7.515 0 001.14 4.24c-.41.092-.822.092-1.233 0zM318.818 156.816c-.593-.684-1.414-1.049-2.463-1.093-1.048-.046-2.097.227-3.146.684-.73-.548-1.642-.822-2.736-.867-1.095 0-2.05.273-2.827.867-.82-.64-1.823-1.005-3.009-1.049-1.185 0-2.143.227-2.78.82-.685.548-1.004 1.231-1.05 1.961 0 .775.09 1.322.32 1.687.73-.365 1.778-.547 3.191-.501 1.413.044 2.507.455 3.237 1.231l-10.532 29.5-8.573-30.14c.822-.591 2.007-.82 3.511-.774.684 0 1.322.227 1.961.638.273-.136.41-.547.456-1.231-.046-1.094-.592-1.96-1.64-2.599-.458-.319-1.05-.592-1.689-.775a13.145 13.145 0 00-2.644-.274c-1.095-.045-2.28.32-3.557 1.095-1.049-.867-2.37-1.278-3.967-1.322-1.64-.046-3.055.319-4.286 1.093-1.093-.866-2.37-1.322-3.83-1.368-1.414-.044-2.553.275-3.328.959-.364.365-.639.73-.82 1.139a3.804 3.804 0 00-.274 1.46c-.046.501.092.866.365 1.093.591-.409 1.321-.592 2.234-.546.912 0 1.961.456 3.146 1.322l2.872 9.392-8.525 22.433-10.625-32.691c.866-.548 2.006-.821 3.511-.776.684.046 1.322.274 1.96.684.275-.183.411-.592.411-1.23 0-1.095-.547-1.961-1.596-2.645-.502-.319-1.049-.548-1.733-.73-.638-.183-1.504-.273-2.599-.319-1.093-.046-2.28.365-3.602 1.095-1.003-.822-2.324-1.277-3.967-1.323-1.596-.045-3.054.318-4.239 1.14-1.095-.866-2.373-1.323-3.83-1.367-1.46-.046-2.554.273-3.33.956a2.919 2.919 0 00-.82 1.14c-.183.411-.275.912-.319 1.413 0 .548.136.913.365 1.095.592-.365 1.368-.547 2.278-.547.913.046 2.008.501 3.193 1.414l4.468 13.222.913 2.462c.455 1.14.637 2.052.637 2.69 0 1.004-1.002 2.053-3.1 3.146 1.596.64 2.872 1.414 3.876 2.281.592.593 1.186 1.596 1.733 2.964l10.715 26.263c.181.183.41.273.682.273.321 0 .548-.046.776-.183.684-.455 1.78-2.324 3.191-5.653l12.085-29.318 11.078 35.701a.927.927 0 00.684.273c.275 0 .548-.044.776-.182.684-.41 1.78-2.279 3.191-5.608l6.748-17.646c.913-2.143 2.098-3.876 3.558-5.152.82-.684 2.188-1.368 4.15-2.097-2.28-.775-3.422-1.779-3.376-3.055.046-.82.501-2.326 1.368-4.56l5.244-13.176c1.14-1.187 2.553-1.779 4.15-1.733.866.044 1.64.273 2.233.684.273-.183.411-.547.411-1.095.045-1.049-.228-1.961-.866-2.645zm-57.589 41.766a18.389 18.389 0 01-.912-1.687 24.194 24.194 0 01-1.047-2.645c-.32-1.093-.776-2.278-1.23-3.556l-1.46-3.648a91.76 91.76 0 00-1.277-3.146 27.6 27.6 0 00-.958-1.96c-.229-.411-.638-.684-1.186-.82-.547-.184-1.32-.365-2.28-.594 1.55-.547 2.28-1.185 2.28-1.824-.046-.273-.046-.592-.046-.867-.044-.227-.09-.592-.136-1.003-.092-.364-.183-.866-.319-1.458-.183-.593-.455-1.596-.913-3.01a41.515 41.515 0 01-1.094-4.013c-.09-.501-.18-.91-.227-1.185-.046-.319-.046-.774-.046-1.412.046-.593.273-1.049.776-1.277a112.566 112.566 0 012.597 8.116 136.76 136.76 0 002.874 8.617 237.188 237.188 0 013.237 9.165 241.91 241.91 0 003.42 9.574c-.775-.136-1.459-.591-2.053-1.367zm29.82 1.46c0 .365-.045.637-.137.774l-8.89-26.262-1.185-3.83a11.068 11.068 0 01-.502-3.283c.044-1.003.227-1.733.638-2.234L290 191.879c.365 1.232.593 2.281.73 3.237.136.548.182 1.095.274 1.597.045.501.045 1.141.045 1.778-.045.684-.045 1.232 0 1.551zM365.598 202.823c.046-.64-.182-1.278-.592-1.869a4.81 4.81 0 00-1.413-1.46c.274-.594.455-1.095.455-1.55 0-.456-.181-.913-.684-1.414-.227-.319-.32-.684-.32-1.139l.276-1.733c.044-.684-.23-1.324-.776-2.007-.273-.227-.548-.502-.867-.684-.365-.181-.82-.273-1.458-.319-.64 0-1.277.274-1.871.866.139.548.229 1.368.183 2.417-.09 3.602-1.14 6.977-3.101 10.077-1.732 2.69-4.787 4.013-9.255 3.875-3.967-.137-6.566-1.412-7.887-3.875l.547-17.828c.866-.502 2.006-.684 3.373-.638 1.368.046 2.599.273 3.648.73 1.185.547 1.779 1.959 1.687 4.149-.046 1.139-.32 2.096-.82 2.918.5.409 1.093.592 1.732.592.957.046 1.779-.273 2.553-.911.365-.321.73-.776 1.003-1.369.275-.592.41-1.23.457-1.87 0-.683-.092-1.413-.365-2.188 1.003-1.094 1.55-2.416 1.595-3.966.046-1.505-.41-2.872-1.368-4.013a6.696 6.696 0 00.5-2.006c0-.547-.09-1.049-.362-1.506-.64-1.321-1.78-2.005-3.375-2.051-.73 0-1.322.138-1.823.457.5.591.728 1.413.684 2.461-.046 1.824-.594 3.01-1.596 3.421-.548.227-1.278.409-2.281.501-.364.09-.73.09-1.094.137-.41 0-.911 0-1.641-.047-.73 0-1.504-.272-2.326-.82l.41-13.815c.639-1.597 1.734-2.828 3.193-3.694a9.21 9.21 0 014.97-1.14c3.556.092 6.155 1.505 7.887 4.286 1.232 2.007 1.825 4.332 1.733 6.931-.046 1.139-.182 1.961-.501 2.509.82.455 1.687.728 2.689.728.684.046 1.37-.273 2.052-.957.365-.365.639-.82.912-1.368a4.857 4.857 0 00.365-1.869c.046-.684-.09-1.368-.365-2.097.959-.867 1.46-2.008 1.506-3.375.045-1.368-.228-2.554-.866-3.51.5-.594.728-1.506.774-2.782.046-1.277-.273-2.234-.958-2.964-.73-.684-1.55-1.049-2.598-1.095-1.004-.044-1.871 0-2.508.092.136.592.182 1.003.182 1.232 0 .956-.365 1.412-1.05 1.412-.318 0-.683-.091-1.094-.181l-3.144-.958c-1.733-.548-3.785-.821-6.247-.913-3.283-.09-6.201.275-8.754 1.141-1.278-.958-2.738-1.46-4.332-1.55-1.596-.046-3.01.319-4.286 1.049-1.141-.822-2.416-1.232-3.83-1.278-1.414-.046-2.691.273-3.831.913a3.352 3.352 0 00-1.14.957c-.273.41-.456.82-.456 1.323 0 .455.092.866.365 1.229.548-.409 1.185-.591 2.006-.545 2.143.044 3.557 1.003 4.33 2.872l-.454 15.047c-.046 1.139-.501 2.188-1.322 3.1-.501.548-1.55 1.185-3.192 1.869 1.687.913 2.872 1.823 3.602 2.69.41.547.639 1.369.593 2.462l-.547 17.418c-.867 1.779-2.325 2.645-4.468 2.599-.776-.046-1.46-.273-1.962-.684-.273.365-.41.776-.455 1.231 0 .957.455 1.733 1.46 2.371a6.687 6.687 0 001.73.776c.685.227 1.507.319 2.556.365 1.048 0 2.188-.321 3.419-1.049 1.185.82 2.553 1.231 4.103 1.276 1.642.046 3.1-.365 4.378-1.186 2.324.959 5.152 1.46 8.525 1.551 3.375.136 6.384-.319 9.029-1.322 1.139-.411 2.28-.594 3.375-.548 1.003 0 1.504.594 1.458 1.687 0 .501-.09 1.003-.182 1.55.73.137 1.413.229 2.05.275 1.232.044 2.28-.411 3.056-1.324.822-.91 1.23-2.051 1.277-3.373.046-1.368-.183-2.37-.638-3.1 1.139-1.049 1.777-2.234 1.777-3.602zm-34.013-25.899a8899.1 8899.1 0 00-.274 9.392c-.137 4.697-.32 8.391-.548 11.034-.227 2.645-.91 4.195-2.097 4.606l.138-4.65c.182-7.206.182-11.353-.046-12.494-.183-.73-.96-1.368-2.371-1.915 1.276-.365 2.098-1.003 2.46-1.962.32-1.139.595-5.836.867-14.088.41.182.822.593 1.278 1.185.41.594.638 2.326.638 5.108 0 .957-.045 2.188-.045 3.784zM407.82 190.967c-1.141-2.142-3.283-4.741-6.383-7.796-.684-.683-1.46-1.413-2.234-2.143a2.003 2.003 0 01-.64-1.003c-.044-.092-.044-.229-.044-.365 0-.319.09-.774.227-1.46l.547-1.959c-.82.501-1.686.866-2.553 1.139-.411.092-.776.182-1.095.228-.319.091-.684.091-1.003.091-.318 0-.956-.319-1.915-.957l-1.64-1.185c-2.144-1.506-3.694-2.964-4.651-4.378-.547-.774-.776-1.779-.73-2.918.046-1.55.638-2.872 1.823-3.921 1.231-1.141 2.828-1.642 4.697-1.596 3.01.09 5.427 1.049 7.204 2.872.866.866 1.505 1.915 1.961 3.056.455 1.185.684 2.278.638 3.373-.045 1.095-.273 2.144-.684 3.055.639.365 1.46.547 2.416.593.64 0 1.278-.319 2.008-1.049.319-.319.547-.73.774-1.185.182-.457.275-.912.275-1.46.044-.501-.047-1.093-.229-1.732 1.049-.957 1.596-2.188 1.641-3.647.046-1.505-.319-2.599-1.14-3.375.594-.501.913-1.231.959-2.234 0-1.049-.275-1.961-.913-2.781a4.092 4.092 0 00-.912-.867c-.365-.228-.684-.319-1.003-.319-.273 0-.501 0-.684.091.091.228.137.503.137.866-.046.365-.183.776-.502 1.232-.365.411-.776.639-1.185.683-.457.046-.958.046-1.504.046-1.277-.046-2.463-.272-3.465-.729-2.373-1.003-5.016-1.551-7.89-1.641-4.695-.137-8.662 1.049-11.808 3.602-1.506 1.185-2.691 2.645-3.602 4.378-.912 1.777-1.369 3.509-1.414 5.196-.046 1.733.045 3.193.273 4.332.319 1.642 1.095 3.421 2.28 5.244.411.638.867 1.277 1.414 1.961a39.57 39.57 0 003.329 3.648l1.322 1.23c.409.411.638.73.638.958a10.691 10.691 0 01-.73 3.373c1.55-1.002 2.964-1.458 4.241-1.413 1.231.046 2.872.822 4.879 2.326 2.644 1.915 4.559 3.738 5.744 5.471.776 1.095 1.141 2.462 1.095 4.195-.092 2.417-1.003 4.332-2.736 5.654-1.642 1.277-3.601 1.869-5.881 1.778-3.375-.092-6.155-1.277-8.253-3.601a10.066 10.066 0 01-2.28-3.74c-.502-1.459-.73-3.145-.684-5.06.046-1.916.547-3.329 1.414-4.196-.365-.774-1.049-1.185-2.008-1.185-.956-.046-1.959.592-3.008 1.869-.501.548-.866 1.231-1.185 2.052a9.006 9.006 0 00-.502 2.553c0 .912.181 1.778.546 2.599-1.412 1.46-2.142 2.964-2.188 4.424-.046 1.458.502 2.735 1.642 3.83.045.136.045.227.045.409l-.045.502c-.046 1.323-.32 2.326-.912 2.964.365.82 1.093 1.277 2.188 1.321 1.733.046 3.558-.866 5.517-2.689 2.918 1.733 6.43 2.645 10.487 2.782 5.791.136 10.532-1.322 14.226-4.423 1.687-1.413 3.01-3.056 3.921-4.879.913-1.869 1.414-4.103 1.46-6.702.09-2.645-.501-5.062-1.733-7.388zm-6.794 13.178c.136-.592.182-1.322.228-2.188.046-2.463-.547-4.515-1.686-6.201-1.55-2.28-4.607-4.925-9.075-7.889-.912-.638-1.915-.957-2.964-.957-.501-.046-1.185.182-2.051.684.046-.092.092-.229.182-.411.046-.227.137-.41.183-.638.092-.183.182-.456.274-.82.091-.365-.228-.867-.958-1.597l-1.14-1.095-.912-.866c-.547-.501-1.049-1.047-1.55-1.55-3.193-3.42-4.743-6.52-4.651-9.392.046-1.596.502-2.553 1.414-2.918-.138 2.371.684 4.924 2.507 7.659 1.049 1.642 2.416 3.193 4.059 4.743a35.86 35.86 0 003.1 2.645 24.347 24.347 0 002.052 1.549l4.969 3.603c1.414 1.049 2.6 2.006 3.556 2.918a22.035 22.035 0 012.326 2.417 13.933 13.933 0 011.551 2.553c.455.912.638 2.234.591 3.966-.044 1.733-.728 3.011-2.005 3.785zM465.773 163.381c0-1.413-.455-2.553-1.322-3.373a4.057 4.057 0 00-1.46-.958 4.603 4.603 0 00-1.778-.365 2.25 2.25 0 00-1.551.457c.183.592.229 1.003.229 1.231-.046.957-.365 1.414-1.049 1.414a9.264 9.264 0 01-1.095-.183l-3.145-.958c-1.732-.547-3.74-.82-6.018-.912-1.46-.045-2.874.32-4.287 1.094-1.23-.866-2.598-1.277-4.15-1.321-1.55-.046-2.918.273-4.147 1.049-1.414-.822-3.01-1.278-4.879-1.324-1.825-.09-4.15.229-6.977.867l-1.597.411c-.409.09-.774.136-1.139.136-.638-.046-.957-.501-.957-1.458 0-.229.137-.64.319-1.231-.411-.365-1.003-.548-1.825-.594-.409 0-.91.092-1.504.275-1.961.683-2.964 2.051-3.01 4.149-.044 1.777.411 3.237 1.368 4.33-.728.866-1.139 1.915-1.185 3.239-.045 1.321.365 2.506 1.231 3.601-.547.957-.866 2.188-.911 3.602v.229c0 1.321.41 2.599 1.276 3.828a.972.972 0 00.182.229c.411.501.867.912 1.368 1.277.638.365 1.324.546 2.098.592.776 0 1.322-.273 1.641-.866-.364-.592-.638-1.276-.821-2.188-.136-.821-.182-1.825-.182-2.918 0-.684.092-1.322.138-1.915.409-3.147 1.504-5.7 3.327-7.706 1.003-1.048 2.098-1.87 3.283-2.372 1.231-.547 2.372-.82 3.419-.774 1.095.046 2.008.227 2.828.501l-.182 6.019-.183 5.607-.136 4.925c-.046 1.186-.502 2.188-1.322 3.101-.501.547-1.55 1.185-3.193 1.869 1.687.912 2.872 1.825 3.602 2.736.411.501.64 1.323.594 2.416l-.548 17.373c-.455.957-1.139 1.595-2.051 2.052a6.564 6.564 0 01-2.691.592c-.867-.045-1.551-.273-2.052-.684a2.005 2.005 0 00-.409 1.231c-.046.959.455 1.733 1.458 2.371.457.32 1.049.593 1.686.776.686.228 1.552.319 2.645.365 1.095.046 2.327-.319 3.648-1.095 1.278.866 2.645 1.277 4.15 1.323 1.504.044 2.872-.321 4.149-1.049 1.322.821 2.689 1.276 4.149 1.322 1.46.046 2.736-.273 3.875-.912.457-.273.866-.592 1.141-1.003.273-.365.455-.821.455-1.278 0-.455-.09-.866-.365-1.229-.501.363-1.231.546-2.097.546a5.693 5.693 0 01-2.644-.775c-.866-.455-1.504-1.185-1.915-2.143l.547-17.372c0-1.095.365-2.052 1.094-2.918.503-.501 1.642-1.185 3.375-1.961-1.597-.82-2.736-1.687-3.512-2.645-.501-.546-.73-1.458-.684-2.598l.275-8.344.182-6.065.045-2.142c.776-.274 1.642-.365 2.645-.365 1.368.045 2.645.41 3.784 1.094 1.049.547 2.006 1.367 2.918 2.462a14.547 14.547 0 011.779 3.101c.136.365.228.73.365 1.095.546 1.64.774 3.601.728 5.789-.09 2.19-.501 3.831-1.322 4.88.273.591.821.912 1.643.956 1.458.046 2.689-.591 3.738-1.913.455-.548.82-1.231 1.095-2.007.227-.775.409-1.641.409-2.645.046-.957-.182-1.96-.73-2.918.959-1.049 1.414-2.235 1.46-3.556v-.638a5.292 5.292 0 00-.957-2.645c1.048-1.049 1.549-2.371 1.641-3.967v-.229zm-27.13 12.996c0 .957-.046 2.234-.046 3.784-.044 1.55-.136 4.697-.273 9.394-.136 4.695-.319 8.389-.547 11.034-.227 2.643-.911 4.193-2.098 4.604l.138-4.65c.183-7.16.183-11.353-.046-12.494-.182-.729-.958-1.368-2.37-1.916 1.275-.364 2.096-1.002 2.461-1.959.228-.82.457-3.83.639-8.936.09-1.551.183-3.239.227-5.154.411.228.822.593 1.277 1.187.365.455.548 1.64.592 3.463.046.504.046 1.049.046 1.643z" fill="#35130d" fill-rule="nonzero"/><path d="M520.807 292.646l-4.97.457-.092.044a1679.71 1679.71 0 01-52.435 2.874c-17.463.684-34.925 1.185-52.481 1.049-17.508-.092-35.108-1.049-52.525-2.737-16.507-1.641-32.876-3.556-49.244-7.248v6.564l-1.46.547-.136.092c-11.582 3.875-22.706 4.697-34.105 5.836-11.309.867-22.708 1.322-34.198 1.049-22.934-.73-45.686-5.108-67.572-10.761-5.517-1.368-10.989-2.918-16.188-3.83-5.425-.911-10.942-1.641-16.505-2.235-11.126-1.229-22.341-2.096-33.603-2.825-22.433-1.46-44.959-2.828-67.482-3.74l-1.915-.091-.275-1.779-.044-.09-4.879-32.418-.092-.73.547-.319.092-.092c2.417-1.458 4.879-2.325 7.477-2.964 2.508-.728 5.336-1.003 7.66-1.368.867-.136 1.597-.365 2.281-.82h.046a5.933 5.933 0 002.507-2.463c.683-1.185 1.094-2.735 1.185-4.24l-6.975-.73-18.878-1.915-3.283-.319.273-3.419v-.046l2.737-24.621.273-2.234 2.098-.137h.046c15.456-1.095 30.913-2.007 46.416-2.599l2.965-.138h.455c.09 0 .136-.044.227 0 3.146-.136 6.339-.227 9.53-.273 4.833-.136 9.712-.136 14.591-.046 4.103.046 8.116.183 12.083-.09.592-.046 1.231-.092 1.823-.137-1.003-.138-2.051-.274-3.1-.411-3.739-.455-7.523-.776-11.307-1.049a476.942 476.942 0 00-14.044-.775c-2.599-.137-5.245-.227-7.844-.319-.319-.045-.591-.045-.91-.045-.319 0-.64 0-.959-.046-1.139 0-2.234-.046-3.373-.092-13.816-.409-27.677-.546-41.493-.592h-2.461l-.912-2.234v-.046c-1.368-3.875-3.01-7.705-4.833-11.399-1.87-3.694-4.013-7.386-6.293-10.579l-.592-.82v-.684l.545-40.717.047-1.458h1.459l21.339-.639a99.188 99.188 0 00-5.199-2.918c-1.915-1.003-3.874-1.916-5.789-2.599a24.149 24.149 0 00-2.828-.775c-1.276-.228-2.553-.547-3.83-1.095-2.553-1.048-4.97-3.1-6.338-5.745a13.496 13.496 0 01-1.367-4.011c-.273-1.278-.273-3.056-.365-3.604-.502-3.738-2.052-8.16-3.51-12.127L11 84.046l5.198.365a2864.442 2864.442 0 0156.037 4.103c8.754.73 17.509 1.46 26.217 2.234l.046 5.198c-8.846-.73-17.736-1.322-26.628-1.915a2750.687 2750.687 0 00-51.204-2.645c.821 2.874 1.551 5.791 1.916 9.12.046 1.687 0 2.142.136 3.145a7.6 7.6 0 00.639 2.326c.683 1.414 1.778 2.507 3.374 3.237.774.411 1.64.638 2.553.867.866.228 1.686.411 2.462.73l.137.046 82.575 13.358-.138 1.049-69.943-7.751a101.938 101.938 0 016.428 4.514h.046l5.653 4.332-7.021-.229-27.312-.774 1.048 38.391c2.828 3.192 5.198 6.52 7.479 9.985a82.593 82.593 0 015.288 9.394c13.178.182 26.31.455 39.441 1.002 1.14.046 2.234.092 3.374.137.365 0 .684.046 1.049.046.365 0 .776.046 1.139.046l7.524.409c2.828.137 5.654.321 8.481.548 1.458.046 2.872.182 4.286.274.547.045 1.049.091 1.596.137 3.875.365 7.705.73 11.626 1.231 1.915.273 3.876.546 5.882.957.547.136 1.095.228 1.642.411.456.09.957.227 1.414.365 1.049.365 2.188.684 3.692 1.777l.183.092.092.136c.182.183.319.365.409.548l5.289.866 12.813 2.052 4.241.684 1.231.182 8.845 1.414 11.856 1.915-.139 1.185-10.851-.547-14.089-.73-20.289-1.003c-.365.319-.776.548-1.095.73-.638.319-1.185.547-1.733.73-.729.227-1.367.363-2.005.501a33.761 33.761 0 01-4.105.546c-.82.092-1.687.138-2.507.183-4.241.182-8.481.046-12.584-.091-4.424-.136-8.846-.136-13.269-.136-3.74.044-7.478.09-11.216.182-1.961.045-3.967.091-5.928.183-.866 0-1.733.044-2.599.09-.502 0-.957 0-1.414.046-12.31.409-24.667.957-36.977 1.733l-.593 19.423L55 226.077h.046l2.005.411v.273c3.42-.183 6.841-.091 10.168.136 7.342.457 14.546 1.642 21.613 3.01a1674.249 1674.249 0 0041.766 7.797c2.326.409 4.604.774 6.838 1.047h.047c4.696-1.275 9.347-1.869 13.998-2.37 5.334-.548 10.669-.867 16.003-1.093a494.516 494.516 0 0131.873-.229c-10.579.501-21.204 1.322-31.735 2.507a302.199 302.199 0 00-15.686 2.19c-.957.182-1.96.365-2.918.547.866.137 1.733.319 2.645.456l20.975 3.738c13.996 2.372 27.95 5.108 42.175 5.38-7.113.776-14.271.411-21.384-.046-7.113-.455-14.181-1.093-21.294-1.777l-21.156-2.508c-3.465-.365-7.203-.867-10.304-1.003-3.74 0-7.342-.411-10.898-.774-14.271-1.46-28.269-3.831-42.359-6.02-6.931-1.094-13.769-1.96-20.608-2.142-3.421-.047-6.794 0-10.077.318-.638.091-1.278.137-1.87.229-.092.182-.182.409-.318.592-1.687 2.599-4.834 4.285-7.707 4.468-2.78.228-5.06.228-7.569.684-2.142.365-4.422.958-6.337 1.871l6.702 29.454c22.024.182 44.046.455 66.068 1.504 11.309.502 22.616 1.139 33.924 2.144 5.654.501 11.353 1.139 17.099 2.005 5.926 1.049 11.307 2.509 16.779 3.831 21.794 5.471 43.68 9.53 65.93 10.075 11.08.548 22.251.139 33.469-.182a335.262 335.262 0 0016.734-.82c5.015-.227 10.258-.729 14.863-1.551v-6.018l-.045-2.782 2.872.594c16.734 3.51 34.197 5.198 51.478 6.474 17.326 1.277 34.653 1.825 51.98 1.46 17.371-.275 34.743-1.186 52.116-2.281 15.867-1.048 31.78-2.28 47.555-3.738l-2.462-58.728c-3.831-.866-7.613-1.823-11.444-2.827l-2.189-.638h-.137l-133.642 1.368 115.952-9.165 7.25-3.602 20.016-7.615 4.787-33.102-22.387 1.642h-.092l-2.234.137-2.826-1.232-3.102-.365c-2.736.183-5.654-.365-8.389-.09-1.504.136-2.964.319-4.468.501-2.463.273-4.924.592-7.386.957-1.551.229-3.057.455-4.605.684-2.28.365-4.514.776-6.748 1.231a111.758 111.758 0 00-7.753 1.641c-.684.138-1.412.321-2.096.503-1.141.227-2.234.546-3.375.865-4.103 1.05-8.162 2.235-12.22 3.511-.09.046-.136.046-.228.046-1.414.456-2.826.867-4.286 1.185a83.489 83.489 0 01-14.955 2.327c-4.468.363-8.982.363-13.45.182-.319 0-.64-.046-.959-.046-1.003-.092-2.005-.136-3.008-.274-2.28-.181-4.514-.456-6.748-.729-7.934-1.095-15.777-2.781-23.346-5.152 7.204 1.687 14.59 2.69 21.932 3.191 1.915.137 3.784.229 5.699.273 1.095.046 2.234.092 3.329.092h2.188a120.13 120.13 0 0011.49-.684c1.688-.136 3.375-.365 5.015-.593 3.831-.684 7.661-1.505 11.355-2.644 1.504-.411 3.008-.958 4.468-1.506.41-.182.821-.319 1.232-.455 4.149-1.641 8.389-3.054 12.674-4.332 4.378-1.321 8.8-2.462 13.224-3.465 1.823-.456 3.646-.867 5.471-1.231.319-.091.684-.137 1.003-.183 4.24-.866 8.481-1.641 12.767-2.234a64.32 64.32 0 012.964-.455c2.826-.411 5.607-.776 8.435-1.049l4.013-1.095 2.188-.957 2.005-.365 19.652-3.738 1.231-30.14-18.466 1.46 18.695-7.889v-.045l.593-15.183c-21.567.273-43.133.273-64.7-.684v-1.506c21.793 1.005 43.635 1.005 65.474.776l.684-.046.046.73v.136l2.234 54.898.092 2.509-2.599.363-.092.046-20.107 2.553.091 3.056 21.657.501 1.369.046-.182 1.14v.09l2.553 38.21.273 3.419-3.237 1.095-.091.046-.457.137-.09.046-13.178 3.874 1.825.821 12.219 5.061.867.319h.136l.502.275.09 1.368v.136l7.797 64.564.548 4.741z" fill="#161615" fill-rule="nonzero"/><path d="M367.624 204.191c-6.11 2.416-12.63 3.282-19.197 3.19-4.787-.136-9.62-.91-14.317-2.507-1.96.229-3.92.638-5.836 1.232-1.824.547-3.603 1.275-5.198 2.278-1.596 1.049-3.1 2.28-4.059 3.967.822-1.731 2.235-3.191 3.785-4.376 1.55-1.185 3.283-2.098 5.108-2.828 1.14-.501 2.324-.866 3.555-1.185-.82-.365-1.596-.73-2.416-1.095-5.243-2.689-11.263-4.057-17.372-4.877-6.156-.822-12.494-1.141-18.877-1.049 6.155-1.779 12.584-2.645 19.106-2.691 3.281.046 6.52.319 9.803.866 3.283.64 6.52 1.596 9.666 2.964 5.288 2.463 11.353 3.419 17.417 4.195l18.832 1.916z" fill="#161615" fill-rule="nonzero"/></svg>