<?xml version="1.0" encoding="UTF-8" standalone="no"?>
<!DOCTYPE svg PUBLIC "-//W3C//DTD SVG 1.1//EN" "http://www.w3.org/Graphics/SVG/1.1/DTD/svg11.dtd">
<svg width="100%" height="100%" viewBox="0 0 1920 527" version="1.1" xmlns="http://www.w3.org/2000/svg" xmlns:xlink="http://www.w3.org/1999/xlink" xml:space="preserve" xmlns:serif="http://www.serif.com/" style="fill-rule:evenodd;clip-rule:evenodd;stroke-linejoin:round;stroke-miterlimit:2;">
    <g transform="matrix(1,1.28692e-17,-1.28692e-17,-0.894915,-4.14327e-14,527)">
        <rect x="0" y="0" width="1920" height="590" style="fill:rgb(64,40,31);"/>
    </g>
    <g transform="matrix(1,0,0,1,0,-3256.72)">
        <g opacity="0.33">
            <g transform="matrix(1,0,0,-1,-1784.74,4334.01)">
                <path d="M2102.4,816.412L2102.4,816.476C2102.4,823.186 2103.12,829.364 2104.24,834.961C2108,853.602 2116.47,865.834 2119.57,869.791L2123.01,874.243L2121.67,879.705C2110.75,924.219 2088.21,965.366 2056.45,998.696L2052.82,1002.52L2047.55,1002.29C2046.54,1002.26 2045.36,1002.23 2044.05,1002.23C2039.9,1002.23 2034.28,1002.52 2027.73,1003.57C2016.35,1005.4 2002.22,1009.56 1988.22,1018.58C1962.87,1034.97 1956.56,1053.75 1955.22,1059.11L1954.82,1060.71L1953.65,1065.39L1947.5,1067.38C1921.56,1075.76 1894.51,1080.01 1867.1,1080.01C1853.23,1080.01 1839.46,1078.93 1825.89,1076.74C1825.53,1076.71 1825.17,1076.64 1824.81,1076.58C1823.67,1076.41 1822.48,1076.22 1821.34,1075.99C1820.75,1075.89 1820.13,1075.79 1819.54,1075.66C1808.45,1073.63 1797.5,1070.85 1786.73,1067.38L1780.59,1065.39L1780.29,1064.24L1779.02,1059.11C1777.67,1053.75 1771.36,1034.97 1746.01,1018.58C1727.89,1006.91 1709.54,1003.37 1697.25,1002.49C1694.56,1002.29 1692.17,1002.23 1690.15,1002.23C1688.84,1002.23 1687.7,1002.26 1686.68,1002.29L1681.41,1002.52L1677.78,998.696C1646.02,965.366 1623.49,924.219 1612.53,879.705L1611.19,874.243L1614.65,869.791C1617.37,866.296 1624.27,856.382 1628.46,841.305C1630.46,834.139 1631.83,825.799 1631.83,816.412C1631.83,813.696 1631.67,810.949 1631.37,808.234C1629.34,787.824 1620.18,768.231 1614.43,757.666L1612.23,753.612L1613.38,749.198C1624.76,705.432 1647.43,665.005 1678.96,632.331L1682.62,628.535L1687.89,628.766C1688.97,628.831 1690.34,628.863 1691.92,628.863C1694.17,628.863 1696.82,628.799 1699.83,628.535C1710.69,627.718 1725.67,624.842 1738.59,616.206C1759.85,601.974 1773.52,587.42 1781.57,570.414L1783.66,566.064L1783.76,565.833L1787.49,564.655L1787.72,564.591L1788.6,564.295C1809.17,557.822 1830.47,553.929 1852.09,552.687C1852.48,552.655 1852.87,552.655 1853.26,552.622C1857.88,552.391 1862.48,552.262 1867.1,552.262L1867.13,552.262C1893.89,552.262 1920.32,556.316 1945.63,564.295L1950.47,565.833L1952.57,570.252L1952.63,570.414C1960.71,587.42 1974.38,601.974 1995.64,616.206C2004.74,622.288 2014.84,625.524 2023.84,627.196C2031.13,628.535 2037.64,628.863 2042.29,628.863C2043.89,628.863 2045.26,628.831 2046.34,628.766L2051.61,628.535L2055.24,632.331C2086.8,665.005 2109.47,705.432 2120.82,749.198L2121.99,753.612L2119.81,757.666C2113.3,769.64 2102.4,793.19 2102.4,816.412ZM2066.72,923.273C2066.72,923.24 2066.75,923.208 2066.75,923.176C2070.38,915.649 2072.41,907.213 2072.41,898.314C2072.41,897.825 2072.41,897.303 2072.38,896.809C2071.59,865.737 2046.08,840.714 2014.78,840.714C1983.02,840.714 1957.18,866.554 1957.18,898.314C1957.18,930.074 1983.02,955.947 2014.78,955.947C2037.64,955.947 2057.4,942.569 2066.72,923.273ZM2015.17,794.271C2043.23,794.271 2066.68,774.086 2071.76,747.499C2072.44,743.999 2072.8,740.332 2072.8,736.638C2072.8,723.422 2068.29,711.19 2060.76,701.443C2050.23,687.834 2033.72,679.038 2015.17,679.038C1983.41,679.038 1957.57,704.878 1957.57,736.638C1957.57,768.398 1983.41,794.271 2015.17,794.271ZM1722.14,794.271C1753.93,794.271 1779.77,768.398 1779.77,736.638C1779.77,704.878 1753.93,679.038 1722.14,679.038C1690.38,679.038 1664.54,704.878 1664.54,736.638C1664.54,768.398 1690.38,794.271 1722.14,794.271ZM1722.14,840.714C1714.32,840.714 1706.86,842.284 1700.06,845.096C1699.89,845.166 1699.7,845.263 1699.53,845.327C1679,854.123 1664.54,874.571 1664.54,898.314C1664.54,930.074 1690.38,955.947 1722.14,955.947C1753.93,955.947 1779.77,930.074 1779.77,898.314C1779.77,866.554 1753.93,840.714 1722.14,840.714ZM1809.76,648.784C1809.76,680.576 1835.63,706.416 1867.39,706.416C1888.98,706.416 1907.82,694.474 1917.67,676.877L1917.67,676.844C1922.34,668.538 1924.99,658.957 1924.99,648.784C1924.99,617.024 1899.15,591.184 1867.39,591.184C1837.47,591.184 1812.77,614.142 1810.03,643.353C1809.86,645.155 1809.76,646.95 1809.76,648.784ZM1917.67,952.973L1917.67,952.936C1907.79,935.343 1888.95,923.434 1867.39,923.434C1835.63,923.434 1809.76,949.274 1809.76,981.034C1809.76,983.163 1809.89,985.255 1810.09,987.314C1810.09,987.314 1810.09,987.346 1810.12,987.346C1813.26,1016.17 1837.76,1038.67 1867.39,1038.67C1899.15,1038.67 1924.99,1012.83 1924.99,981.034C1924.99,970.862 1922.34,961.28 1917.67,952.973Z" style="fill:rgb(242,199,68);fill-rule:nonzero;"/>
            </g>
            <g transform="matrix(0.913545,-0.406737,-0.406737,-0.913545,1715.59,3840.12)">
                <path d="M551.576,318.327L551.576,317.39C551.502,317.077 551.502,316.764 551.447,316.378C551.447,316.231 551.447,316.066 551.41,315.937C551.41,315.624 551.318,315.33 551.318,314.981C551.263,314.815 551.263,314.613 551.208,314.429C551.061,313.804 550.896,313.124 550.693,312.48C548.266,304.464 540.728,298.635 531.883,298.635C531.387,298.635 530.909,298.635 530.413,298.708C529.879,298.708 529.383,298.764 528.96,298.819C528.519,298.892 528.077,298.947 527.618,299.076L527.507,299.076C527.066,299.205 526.57,299.334 526.11,299.444L526.073,299.536C525.632,299.646 525.209,299.756 524.823,299.959C524.437,300.087 524.05,300.198 523.756,300.4C523.554,300.455 523.444,300.51 523.315,300.584C523.002,300.694 522.616,300.896 522.304,301.08C521.55,301.503 520.87,301.945 520.189,302.459C520.005,302.588 519.803,302.754 519.601,302.901L519.601,302.956L518.847,303.544C518.553,303.838 518.185,304.151 517.854,304.464C517.597,304.794 517.358,305.034 517.1,305.346C516.843,305.604 516.659,305.843 516.493,306.1L516.236,306.357C516.107,306.541 515.979,306.707 515.85,306.854C515.721,307.056 515.592,307.222 515.482,307.479C515.335,307.663 515.243,307.865 515.096,308.049C514.894,308.362 514.728,308.674 514.526,308.968C514.342,309.354 514.085,309.796 513.901,310.219L508.219,304.592L400.655,199.345L426.103,52.304L427.647,42.485C433.237,43.68 439.176,42.393 443.773,38.881C445.115,37.852 446.347,36.657 447.413,35.278L448.443,33.843C453.849,25.312 451.992,14.059 444.067,7.789C443.81,7.587 443.552,7.384 443.295,7.2C434.561,0.949 422.499,2.843 416.119,11.374C415.953,11.466 415.88,11.577 415.751,11.724C415.696,11.834 415.622,11.926 415.604,12.091L415.347,12.441C415.107,12.809 414.924,13.14 414.74,13.397C414.611,13.599 414.556,13.783 414.39,13.985C414.335,14.096 414.317,14.224 414.225,14.335C414.17,14.427 414.133,14.574 414.059,14.666C413.894,15.015 413.692,15.401 413.526,15.842C413.434,16.21 413.214,16.615 413.103,16.982C411.32,22.517 412.018,28.548 414.942,33.402L406.135,38.072L275.017,111.161L267.975,107.52L267.919,107.483L130.789,37.116C134.816,28.695 132.315,18.361 124.409,12.735C120.032,9.591 114.792,8.524 109.828,9.297C104.863,10.143 100.138,12.864 96.957,17.295L96.424,18.067C96.276,18.343 96.111,18.619 95.945,18.968C95.872,19.06 95.762,19.207 95.725,19.336C95.559,19.593 95.412,19.869 95.228,20.145C95.173,20.329 95.081,20.494 95.008,20.66C94.75,21.267 94.493,21.91 94.309,22.554C91.606,30.515 94.364,39.598 101.554,44.747C101.958,45.041 102.363,45.317 102.804,45.556C103.208,45.85 103.668,46.089 104.054,46.31C104.44,46.512 104.845,46.714 105.286,46.861L105.378,46.953C105.819,47.082 106.261,47.284 106.72,47.45L106.794,47.431C107.217,47.56 107.658,47.726 108.081,47.781C108.449,47.909 108.835,48.038 109.184,48.056C109.386,48.112 109.533,48.112 109.662,48.167C109.975,48.24 110.398,48.296 110.784,48.332C111.63,48.424 112.439,48.461 113.321,48.461C113.542,48.461 113.799,48.424 114.038,48.424L114.075,48.369C114.369,48.369 114.682,48.351 114.994,48.332C115.436,48.277 115.914,48.24 116.355,48.167C116.741,48.056 117.091,48.001 117.477,47.909C117.826,47.818 118.12,47.744 118.414,47.634L118.782,47.578C118.984,47.487 119.187,47.431 119.371,47.376C119.591,47.303 119.793,47.229 120.051,47.082C120.272,47.027 120.455,46.935 120.676,46.861C121.025,46.714 121.356,46.567 121.687,46.439C122.055,46.236 122.515,46.016 122.919,45.758L124.28,53.683L150.923,199.345L37.677,310.219C34.588,303.397 27.711,298.635 19.75,298.635L18.738,298.635C18.297,298.635 17.929,298.708 17.543,298.764L17.488,298.764C16.973,298.764 16.532,298.892 16.091,298.947C15.723,299.003 15.282,299.15 14.895,299.205C14.785,299.242 14.675,299.242 14.473,299.334C14.086,299.389 13.737,299.536 13.388,299.646L13.296,299.701C12.836,299.83 12.34,300.014 11.972,300.198L11.898,300.198C11.476,300.4 11.089,300.639 10.648,300.841L10.519,300.896C10.133,301.08 9.784,301.338 9.398,301.503C9.012,301.761 8.57,302.036 8.203,302.331C7.964,302.533 7.725,302.698 7.467,302.901C7.283,303.029 7.136,303.14 6.952,303.342C6.713,303.544 6.511,303.71 6.272,303.967C6.125,304.004 6.015,304.151 5.886,304.298C5.702,304.464 5.573,304.647 5.389,304.85C5.114,305.034 4.948,305.291 4.764,305.548C4.636,305.659 4.507,305.787 4.452,305.898C4.213,306.21 3.955,306.541 3.698,306.854L3.624,306.964C3.33,307.35 3.054,307.792 2.815,308.159L2.76,308.306C2.558,308.674 2.319,309.042 2.117,309.41C2.117,309.557 2.061,309.612 2.006,309.667C1.804,310.127 1.62,310.568 1.455,311.046C1.252,311.469 1.068,311.984 0.866,312.48C0.627,313.363 0.37,314.319 0.259,315.238C0.057,316.231 0.002,317.261 0.002,318.327C0.002,323.531 2.006,328.164 5.261,331.658C8.828,335.556 14.031,338.001 19.75,338.001C29.403,338.001 37.475,331.033 39.093,321.839L199.446,345.393L263.562,473.495L268.011,482.413C262.734,484.675 258.671,489.18 256.979,494.696C256.464,496.332 256.17,498.024 256.096,499.789L256.096,501.536C256.648,511.612 264.702,519.684 274.814,520.18C275.127,520.217 275.458,520.217 275.789,520.217C286.527,520.217 295.224,511.685 295.463,501.039C295.537,500.855 295.537,500.708 295.537,500.524C295.537,500.414 295.537,500.285 295.463,500.138L295.463,499.697C295.463,499.274 295.408,498.888 295.408,498.594C295.408,498.336 295.334,498.152 295.334,497.895C295.334,497.785 295.279,497.638 295.279,497.527L295.224,497.141C295.151,496.773 295.095,496.332 294.948,495.891C294.838,495.523 294.783,495.082 294.654,494.696C292.889,489.18 288.825,484.675 283.622,482.413L288.071,473.495L352.132,345.393L359.965,344.271L360.038,344.271L512.54,321.839C514.158,331.033 522.193,338.001 531.883,338.001C537.289,338.001 542.18,335.813 545.747,332.301C549.314,328.716 551.576,323.77 551.576,318.327Z" style="fill:rgb(242,199,68);fill-rule:nonzero;"/>
            </g>
        </g>
    </g>
</svg>
